<mxfile host="app.diagrams.net" modified="2023-05-27T20:10:30.041Z" agent="Mozilla/5.0 (Macintosh; Intel Mac OS X 10_15_7) AppleWebKit/605.1.15 (KHTML, like Gecko) Version/16.4 Safari/605.1.15" etag="632S_FDuxVJnJxBg8su5" version="21.3.4">
  <diagram id="C5RBs43oDa-KdzZeNtuy" name="Page-1">
    <mxGraphModel dx="1524" dy="1185" grid="1" gridSize="10" guides="1" tooltips="1" connect="1" arrows="1" fold="1" page="1" pageScale="1" pageWidth="827" pageHeight="1169" math="0" shadow="0">
      <root>
        <mxCell id="WIyWlLk6GJQsqaUBKTNV-0" />
        <mxCell id="WIyWlLk6GJQsqaUBKTNV-1" parent="WIyWlLk6GJQsqaUBKTNV-0" />
        <mxCell id="nLkVJomoMqzsWr1Mw08b-5" style="edgeStyle=orthogonalEdgeStyle;rounded=0;orthogonalLoop=1;jettySize=auto;html=1;" edge="1" parent="WIyWlLk6GJQsqaUBKTNV-1" source="nLkVJomoMqzsWr1Mw08b-0">
          <mxGeometry relative="1" as="geometry">
            <mxPoint x="380" y="240" as="targetPoint" />
          </mxGeometry>
        </mxCell>
        <mxCell id="nLkVJomoMqzsWr1Mw08b-0" value="Start" style="ellipse;whiteSpace=wrap;html=1;" vertex="1" parent="WIyWlLk6GJQsqaUBKTNV-1">
          <mxGeometry x="320" y="80" width="120" height="90" as="geometry" />
        </mxCell>
        <mxCell id="nLkVJomoMqzsWr1Mw08b-18" style="edgeStyle=orthogonalEdgeStyle;rounded=0;orthogonalLoop=1;jettySize=auto;html=1;" edge="1" parent="WIyWlLk6GJQsqaUBKTNV-1" source="nLkVJomoMqzsWr1Mw08b-17" target="nLkVJomoMqzsWr1Mw08b-19">
          <mxGeometry relative="1" as="geometry">
            <mxPoint x="380" y="390" as="targetPoint" />
          </mxGeometry>
        </mxCell>
        <mxCell id="nLkVJomoMqzsWr1Mw08b-17" value="Set Traffic Lights" style="rounded=1;whiteSpace=wrap;html=1;" vertex="1" parent="WIyWlLk6GJQsqaUBKTNV-1">
          <mxGeometry x="310" y="240" width="140" height="60" as="geometry" />
        </mxCell>
        <mxCell id="nLkVJomoMqzsWr1Mw08b-21" style="edgeStyle=orthogonalEdgeStyle;rounded=0;orthogonalLoop=1;jettySize=auto;html=1;" edge="1" parent="WIyWlLk6GJQsqaUBKTNV-1" source="nLkVJomoMqzsWr1Mw08b-19" target="nLkVJomoMqzsWr1Mw08b-22">
          <mxGeometry relative="1" as="geometry">
            <mxPoint x="385" y="490" as="targetPoint" />
          </mxGeometry>
        </mxCell>
        <mxCell id="nLkVJomoMqzsWr1Mw08b-19" value="Set Lights to Green" style="rounded=1;whiteSpace=wrap;html=1;" vertex="1" parent="WIyWlLk6GJQsqaUBKTNV-1">
          <mxGeometry x="310" y="370" width="150" height="60" as="geometry" />
        </mxCell>
        <mxCell id="nLkVJomoMqzsWr1Mw08b-23" style="edgeStyle=orthogonalEdgeStyle;rounded=0;orthogonalLoop=1;jettySize=auto;html=1;" edge="1" parent="WIyWlLk6GJQsqaUBKTNV-1" source="nLkVJomoMqzsWr1Mw08b-22" target="nLkVJomoMqzsWr1Mw08b-24">
          <mxGeometry relative="1" as="geometry">
            <mxPoint x="385" y="660" as="targetPoint" />
          </mxGeometry>
        </mxCell>
        <mxCell id="nLkVJomoMqzsWr1Mw08b-22" value="Wait 40 seconds" style="rounded=1;whiteSpace=wrap;html=1;" vertex="1" parent="WIyWlLk6GJQsqaUBKTNV-1">
          <mxGeometry x="325" y="490" width="120" height="60" as="geometry" />
        </mxCell>
        <mxCell id="nLkVJomoMqzsWr1Mw08b-25" style="edgeStyle=orthogonalEdgeStyle;rounded=0;orthogonalLoop=1;jettySize=auto;html=1;" edge="1" parent="WIyWlLk6GJQsqaUBKTNV-1" source="nLkVJomoMqzsWr1Mw08b-24" target="nLkVJomoMqzsWr1Mw08b-26">
          <mxGeometry relative="1" as="geometry">
            <mxPoint x="150" y="675" as="targetPoint" />
          </mxGeometry>
        </mxCell>
        <mxCell id="nLkVJomoMqzsWr1Mw08b-24" value="Check for Interrupt" style="rhombus;whiteSpace=wrap;html=1;" vertex="1" parent="WIyWlLk6GJQsqaUBKTNV-1">
          <mxGeometry x="310" y="620" width="150" height="110" as="geometry" />
        </mxCell>
        <mxCell id="nLkVJomoMqzsWr1Mw08b-27" style="edgeStyle=orthogonalEdgeStyle;rounded=0;orthogonalLoop=1;jettySize=auto;html=1;" edge="1" parent="WIyWlLk6GJQsqaUBKTNV-1" source="nLkVJomoMqzsWr1Mw08b-26">
          <mxGeometry relative="1" as="geometry">
            <mxPoint x="160" y="885" as="targetPoint" />
          </mxGeometry>
        </mxCell>
        <mxCell id="nLkVJomoMqzsWr1Mw08b-28" value="Yes" style="edgeLabel;html=1;align=center;verticalAlign=middle;resizable=0;points=[];" vertex="1" connectable="0" parent="nLkVJomoMqzsWr1Mw08b-27">
          <mxGeometry x="-0.1672" y="-1" relative="1" as="geometry">
            <mxPoint as="offset" />
          </mxGeometry>
        </mxCell>
        <mxCell id="nLkVJomoMqzsWr1Mw08b-31" value="No" style="edgeStyle=orthogonalEdgeStyle;rounded=0;orthogonalLoop=1;jettySize=auto;html=1;" edge="1" parent="WIyWlLk6GJQsqaUBKTNV-1" source="nLkVJomoMqzsWr1Mw08b-26">
          <mxGeometry x="-0.0035" relative="1" as="geometry">
            <mxPoint x="380" y="1100" as="targetPoint" />
            <mxPoint as="offset" />
          </mxGeometry>
        </mxCell>
        <mxCell id="nLkVJomoMqzsWr1Mw08b-26" value="Interrupt&amp;nbsp;found" style="rhombus;whiteSpace=wrap;html=1;" vertex="1" parent="WIyWlLk6GJQsqaUBKTNV-1">
          <mxGeometry x="330" y="810" width="110" height="150" as="geometry" />
        </mxCell>
        <mxCell id="nLkVJomoMqzsWr1Mw08b-43" style="edgeStyle=orthogonalEdgeStyle;rounded=0;orthogonalLoop=1;jettySize=auto;html=1;" edge="1" parent="WIyWlLk6GJQsqaUBKTNV-1" source="nLkVJomoMqzsWr1Mw08b-29">
          <mxGeometry relative="1" as="geometry">
            <mxPoint x="90" y="1620" as="targetPoint" />
          </mxGeometry>
        </mxCell>
        <mxCell id="nLkVJomoMqzsWr1Mw08b-29" value="Determine Interrupt type" style="rounded=1;whiteSpace=wrap;html=1;" vertex="1" parent="WIyWlLk6GJQsqaUBKTNV-1">
          <mxGeometry x="30" y="1450" width="120" height="60" as="geometry" />
        </mxCell>
        <mxCell id="nLkVJomoMqzsWr1Mw08b-33" value=" Pedestrian&lt;br&gt;&amp;nbsp; &amp;nbsp; &amp;nbsp; &amp;nbsp;crossing &amp;nbsp; &amp;nbsp; &amp;nbsp;&amp;nbsp;&lt;span style=&quot;border: 0px solid rgb(217, 217, 227); box-sizing: border-box; caret-color: rgb(255, 255, 255); color: rgb(255, 255, 255); font-family: &amp;quot;SÃ¶hne Mono&amp;quot;, Monaco, &amp;quot;Andale Mono&amp;quot;, &amp;quot;Ubuntu Mono&amp;quot;, monospace; font-size: 14px; text-align: left;&quot; class=&quot;hljs-operator&quot;&gt;|&lt;/span&gt;" style="rounded=1;whiteSpace=wrap;html=1;" vertex="1" parent="WIyWlLk6GJQsqaUBKTNV-1">
          <mxGeometry x="50" y="1010" width="120" height="60" as="geometry" />
        </mxCell>
        <mxCell id="nLkVJomoMqzsWr1Mw08b-35" style="edgeStyle=orthogonalEdgeStyle;rounded=0;orthogonalLoop=1;jettySize=auto;html=1;" edge="1" parent="WIyWlLk6GJQsqaUBKTNV-1" source="nLkVJomoMqzsWr1Mw08b-34">
          <mxGeometry relative="1" as="geometry">
            <mxPoint x="370" y="1270" as="targetPoint" />
          </mxGeometry>
        </mxCell>
        <mxCell id="nLkVJomoMqzsWr1Mw08b-34" value="Set light to Amber" style="rounded=1;whiteSpace=wrap;html=1;" vertex="1" parent="WIyWlLk6GJQsqaUBKTNV-1">
          <mxGeometry x="310" y="1100" width="120" height="60" as="geometry" />
        </mxCell>
        <mxCell id="nLkVJomoMqzsWr1Mw08b-37" style="edgeStyle=orthogonalEdgeStyle;rounded=0;orthogonalLoop=1;jettySize=auto;html=1;" edge="1" parent="WIyWlLk6GJQsqaUBKTNV-1" source="nLkVJomoMqzsWr1Mw08b-36" target="nLkVJomoMqzsWr1Mw08b-38">
          <mxGeometry relative="1" as="geometry">
            <mxPoint x="370" y="1440" as="targetPoint" />
          </mxGeometry>
        </mxCell>
        <mxCell id="nLkVJomoMqzsWr1Mw08b-36" value="Wait 15 seconds" style="rounded=1;whiteSpace=wrap;html=1;" vertex="1" parent="WIyWlLk6GJQsqaUBKTNV-1">
          <mxGeometry x="310" y="1260" width="120" height="60" as="geometry" />
        </mxCell>
        <mxCell id="nLkVJomoMqzsWr1Mw08b-39" value="Yes" style="edgeStyle=orthogonalEdgeStyle;rounded=0;orthogonalLoop=1;jettySize=auto;html=1;" edge="1" parent="WIyWlLk6GJQsqaUBKTNV-1" source="nLkVJomoMqzsWr1Mw08b-38">
          <mxGeometry relative="1" as="geometry">
            <mxPoint x="150" y="1480" as="targetPoint" />
          </mxGeometry>
        </mxCell>
        <mxCell id="nLkVJomoMqzsWr1Mw08b-45" value="No" style="edgeStyle=orthogonalEdgeStyle;rounded=0;orthogonalLoop=1;jettySize=auto;html=1;" edge="1" parent="WIyWlLk6GJQsqaUBKTNV-1" source="nLkVJomoMqzsWr1Mw08b-38">
          <mxGeometry relative="1" as="geometry">
            <mxPoint x="370" y="1680" as="targetPoint" />
          </mxGeometry>
        </mxCell>
        <mxCell id="nLkVJomoMqzsWr1Mw08b-38" value="Check for Interrupt" style="rhombus;whiteSpace=wrap;html=1;" vertex="1" parent="WIyWlLk6GJQsqaUBKTNV-1">
          <mxGeometry x="310" y="1420" width="120" height="120" as="geometry" />
        </mxCell>
        <mxCell id="nLkVJomoMqzsWr1Mw08b-42" value="Determine Interrupt type" style="rounded=1;whiteSpace=wrap;html=1;" vertex="1" parent="WIyWlLk6GJQsqaUBKTNV-1">
          <mxGeometry x="60" y="865" width="120" height="60" as="geometry" />
        </mxCell>
        <mxCell id="nLkVJomoMqzsWr1Mw08b-44" value="Handle&amp;nbsp;Emergency Vehicle Passage" style="rounded=1;whiteSpace=wrap;html=1;" vertex="1" parent="WIyWlLk6GJQsqaUBKTNV-1">
          <mxGeometry x="30" y="1610" width="120" height="60" as="geometry" />
        </mxCell>
        <mxCell id="nLkVJomoMqzsWr1Mw08b-47" style="edgeStyle=orthogonalEdgeStyle;rounded=0;orthogonalLoop=1;jettySize=auto;html=1;" edge="1" parent="WIyWlLk6GJQsqaUBKTNV-1" source="nLkVJomoMqzsWr1Mw08b-46" target="nLkVJomoMqzsWr1Mw08b-48">
          <mxGeometry relative="1" as="geometry">
            <mxPoint x="370" y="1840" as="targetPoint" />
          </mxGeometry>
        </mxCell>
        <mxCell id="nLkVJomoMqzsWr1Mw08b-46" value="Reset&amp;nbsp;Interrupt Flag" style="rounded=1;whiteSpace=wrap;html=1;" vertex="1" parent="WIyWlLk6GJQsqaUBKTNV-1">
          <mxGeometry x="310" y="1670" width="120" height="60" as="geometry" />
        </mxCell>
        <mxCell id="nLkVJomoMqzsWr1Mw08b-50" style="edgeStyle=orthogonalEdgeStyle;rounded=0;orthogonalLoop=1;jettySize=auto;html=1;" edge="1" parent="WIyWlLk6GJQsqaUBKTNV-1" source="nLkVJomoMqzsWr1Mw08b-48" target="nLkVJomoMqzsWr1Mw08b-51">
          <mxGeometry relative="1" as="geometry">
            <mxPoint x="370" y="1970" as="targetPoint" />
          </mxGeometry>
        </mxCell>
        <mxCell id="nLkVJomoMqzsWr1Mw08b-48" value="Set Light to Red" style="rounded=1;whiteSpace=wrap;html=1;" vertex="1" parent="WIyWlLk6GJQsqaUBKTNV-1">
          <mxGeometry x="310" y="1810" width="120" height="60" as="geometry" />
        </mxCell>
        <mxCell id="nLkVJomoMqzsWr1Mw08b-49" value="" style="endArrow=classic;html=1;rounded=0;exitX=0.5;exitY=1;exitDx=0;exitDy=0;entryX=0.558;entryY=-0.074;entryDx=0;entryDy=0;entryPerimeter=0;" edge="1" parent="WIyWlLk6GJQsqaUBKTNV-1" source="nLkVJomoMqzsWr1Mw08b-42" target="nLkVJomoMqzsWr1Mw08b-33">
          <mxGeometry width="50" height="50" relative="1" as="geometry">
            <mxPoint x="330" y="1030" as="sourcePoint" />
            <mxPoint x="380" y="980" as="targetPoint" />
          </mxGeometry>
        </mxCell>
        <mxCell id="nLkVJomoMqzsWr1Mw08b-52" style="edgeStyle=orthogonalEdgeStyle;rounded=0;orthogonalLoop=1;jettySize=auto;html=1;" edge="1" parent="WIyWlLk6GJQsqaUBKTNV-1" source="nLkVJomoMqzsWr1Mw08b-51">
          <mxGeometry relative="1" as="geometry">
            <mxPoint x="370" y="2110" as="targetPoint" />
          </mxGeometry>
        </mxCell>
        <mxCell id="nLkVJomoMqzsWr1Mw08b-51" value="Calculate&amp;nbsp;Red Duration&amp;nbsp;Dynamically " style="rounded=1;whiteSpace=wrap;html=1;" vertex="1" parent="WIyWlLk6GJQsqaUBKTNV-1">
          <mxGeometry x="310" y="1940" width="120" height="80" as="geometry" />
        </mxCell>
        <mxCell id="nLkVJomoMqzsWr1Mw08b-53" value="&lt;h1&gt;Calculate Red light&amp;nbsp;&lt;/h1&gt;&lt;h1&gt;&lt;p style=&quot;font-size: 16px; font-weight: 400; border: 0px solid rgb(217, 217, 227); box-sizing: border-box; margin: 1.25em 0px; caret-color: rgb(55, 65, 81); color: rgb(55, 65, 81); font-family: SÃ¶hne, ui-sans-serif, system-ui, -apple-system, &amp;quot;Segoe UI&amp;quot;, Roboto, Ubuntu, Cantarell, &amp;quot;Noto Sans&amp;quot;, sans-serif, &amp;quot;Helvetica Neue&amp;quot;, Arial, &amp;quot;Apple Color Emoji&amp;quot;, &amp;quot;Segoe UI Emoji&amp;quot;, &amp;quot;Segoe UI Symbol&amp;quot;, &amp;quot;Noto Color Emoji&amp;quot;;&quot;&gt;Total Cycle Time = Green + Amber + Red&lt;/p&gt;&lt;p style=&quot;font-size: 16px; font-weight: 400; border: 0px solid rgb(217, 217, 227); box-sizing: border-box; margin: 1.25em 0px; caret-color: rgb(55, 65, 81); color: rgb(55, 65, 81); font-family: SÃ¶hne, ui-sans-serif, system-ui, -apple-system, &amp;quot;Segoe UI&amp;quot;, Roboto, Ubuntu, Cantarell, &amp;quot;Noto Sans&amp;quot;, sans-serif, &amp;quot;Helvetica Neue&amp;quot;, Arial, &amp;quot;Apple Color Emoji&amp;quot;, &amp;quot;Segoe UI Emoji&amp;quot;, &amp;quot;Segoe UI Symbol&amp;quot;, &amp;quot;Noto Color Emoji&amp;quot;;&quot;&gt;Given:&lt;br&gt;Green = 40 seconds&lt;br&gt;Amber = 15 seconds&lt;/p&gt;&lt;p style=&quot;font-size: 16px; font-weight: 400; border: 0px solid rgb(217, 217, 227); box-sizing: border-box; margin: 1.25em 0px; caret-color: rgb(55, 65, 81); color: rgb(55, 65, 81); font-family: SÃ¶hne, ui-sans-serif, system-ui, -apple-system, &amp;quot;Segoe UI&amp;quot;, Roboto, Ubuntu, Cantarell, &amp;quot;Noto Sans&amp;quot;, sans-serif, &amp;quot;Helvetica Neue&amp;quot;, Arial, &amp;quot;Apple Color Emoji&amp;quot;, &amp;quot;Segoe UI Emoji&amp;quot;, &amp;quot;Segoe UI Symbol&amp;quot;, &amp;quot;Noto Color Emoji&amp;quot;;&quot;&gt;Total Cycle Time = 40 + 15 + Red&lt;/p&gt;&lt;p style=&quot;font-size: 16px; font-weight: 400; border: 0px solid rgb(217, 217, 227); box-sizing: border-box; margin: 1.25em 0px; caret-color: rgb(55, 65, 81); color: rgb(55, 65, 81); font-family: SÃ¶hne, ui-sans-serif, system-ui, -apple-system, &amp;quot;Segoe UI&amp;quot;, Roboto, Ubuntu, Cantarell, &amp;quot;Noto Sans&amp;quot;, sans-serif, &amp;quot;Helvetica Neue&amp;quot;, Arial, &amp;quot;Apple Color Emoji&amp;quot;, &amp;quot;Segoe UI Emoji&amp;quot;, &amp;quot;Segoe UI Symbol&amp;quot;, &amp;quot;Noto Color Emoji&amp;quot;;&quot;&gt;We can solve for Red:&lt;/p&gt;&lt;p style=&quot;font-size: 16px; font-weight: 400; border: 0px solid rgb(217, 217, 227); box-sizing: border-box; margin: 1.25em 0px; caret-color: rgb(55, 65, 81); color: rgb(55, 65, 81); font-family: SÃ¶hne, ui-sans-serif, system-ui, -apple-system, &amp;quot;Segoe UI&amp;quot;, Roboto, Ubuntu, Cantarell, &amp;quot;Noto Sans&amp;quot;, sans-serif, &amp;quot;Helvetica Neue&amp;quot;, Arial, &amp;quot;Apple Color Emoji&amp;quot;, &amp;quot;Segoe UI Emoji&amp;quot;, &amp;quot;Segoe UI Symbol&amp;quot;, &amp;quot;Noto Color Emoji&amp;quot;;&quot;&gt;Total Cycle Time = 55 + Red&lt;/p&gt;&lt;p style=&quot;font-size: 16px; font-weight: 400; border: 0px solid rgb(217, 217, 227); box-sizing: border-box; margin: 1.25em 0px; caret-color: rgb(55, 65, 81); color: rgb(55, 65, 81); font-family: SÃ¶hne, ui-sans-serif, system-ui, -apple-system, &amp;quot;Segoe UI&amp;quot;, Roboto, Ubuntu, Cantarell, &amp;quot;Noto Sans&amp;quot;, sans-serif, &amp;quot;Helvetica Neue&amp;quot;, Arial, &amp;quot;Apple Color Emoji&amp;quot;, &amp;quot;Segoe UI Emoji&amp;quot;, &amp;quot;Segoe UI Symbol&amp;quot;, &amp;quot;Noto Color Emoji&amp;quot;;&quot;&gt;Red = 60 - (40 + 15)&lt;br/&gt;Red = 60 - 55&lt;br/&gt;Red = 5 seconds&lt;br&gt;&lt;/p&gt;&lt;/h1&gt;" style="text;html=1;strokeColor=none;fillColor=none;spacing=5;spacingTop=-20;whiteSpace=wrap;overflow=hidden;rounded=0;" vertex="1" parent="WIyWlLk6GJQsqaUBKTNV-1">
          <mxGeometry x="20" y="1890" width="240" height="430" as="geometry" />
        </mxCell>
        <mxCell id="nLkVJomoMqzsWr1Mw08b-55" style="edgeStyle=orthogonalEdgeStyle;rounded=0;orthogonalLoop=1;jettySize=auto;html=1;" edge="1" parent="WIyWlLk6GJQsqaUBKTNV-1" source="nLkVJomoMqzsWr1Mw08b-54">
          <mxGeometry relative="1" as="geometry">
            <mxPoint x="370" y="2240" as="targetPoint" />
          </mxGeometry>
        </mxCell>
        <mxCell id="nLkVJomoMqzsWr1Mw08b-54" value="Wait &amp;nbsp;5 Seconds" style="rounded=1;whiteSpace=wrap;html=1;" vertex="1" parent="WIyWlLk6GJQsqaUBKTNV-1">
          <mxGeometry x="310" y="2100" width="120" height="60" as="geometry" />
        </mxCell>
        <mxCell id="nLkVJomoMqzsWr1Mw08b-58" style="edgeStyle=orthogonalEdgeStyle;rounded=0;orthogonalLoop=1;jettySize=auto;html=1;" edge="1" parent="WIyWlLk6GJQsqaUBKTNV-1" source="nLkVJomoMqzsWr1Mw08b-56" target="nLkVJomoMqzsWr1Mw08b-59">
          <mxGeometry relative="1" as="geometry">
            <mxPoint x="370" y="2380" as="targetPoint" />
          </mxGeometry>
        </mxCell>
        <mxCell id="nLkVJomoMqzsWr1Mw08b-56" value="Determine&amp;nbsp;&lt;br&gt;Interrupt Type" style="rounded=1;whiteSpace=wrap;html=1;" vertex="1" parent="WIyWlLk6GJQsqaUBKTNV-1">
          <mxGeometry x="310" y="2220" width="120" height="60" as="geometry" />
        </mxCell>
        <mxCell id="nLkVJomoMqzsWr1Mw08b-60" value="Yes" style="edgeStyle=orthogonalEdgeStyle;rounded=0;orthogonalLoop=1;jettySize=auto;html=1;" edge="1" parent="WIyWlLk6GJQsqaUBKTNV-1" source="nLkVJomoMqzsWr1Mw08b-59">
          <mxGeometry relative="1" as="geometry">
            <mxPoint x="150" y="2405" as="targetPoint" />
          </mxGeometry>
        </mxCell>
        <mxCell id="nLkVJomoMqzsWr1Mw08b-62" value="No" style="edgeStyle=orthogonalEdgeStyle;rounded=0;orthogonalLoop=1;jettySize=auto;html=1;" edge="1" parent="WIyWlLk6GJQsqaUBKTNV-1" source="nLkVJomoMqzsWr1Mw08b-59">
          <mxGeometry relative="1" as="geometry">
            <mxPoint x="370" y="2580" as="targetPoint" />
          </mxGeometry>
        </mxCell>
        <mxCell id="nLkVJomoMqzsWr1Mw08b-59" value="Check for Interrupt" style="rhombus;whiteSpace=wrap;html=1;" vertex="1" parent="WIyWlLk6GJQsqaUBKTNV-1">
          <mxGeometry x="310" y="2340" width="120" height="130" as="geometry" />
        </mxCell>
        <mxCell id="nLkVJomoMqzsWr1Mw08b-61" value="Red Light&lt;br&gt;&amp;nbsp;Interrupted Action" style="rounded=1;whiteSpace=wrap;html=1;" vertex="1" parent="WIyWlLk6GJQsqaUBKTNV-1">
          <mxGeometry x="60" y="2375" width="120" height="60" as="geometry" />
        </mxCell>
        <mxCell id="nLkVJomoMqzsWr1Mw08b-64" style="edgeStyle=orthogonalEdgeStyle;rounded=0;orthogonalLoop=1;jettySize=auto;html=1;" edge="1" parent="WIyWlLk6GJQsqaUBKTNV-1" source="nLkVJomoMqzsWr1Mw08b-63" target="nLkVJomoMqzsWr1Mw08b-65">
          <mxGeometry relative="1" as="geometry">
            <mxPoint x="370" y="2710" as="targetPoint" />
          </mxGeometry>
        </mxCell>
        <mxCell id="nLkVJomoMqzsWr1Mw08b-63" value="Reset&amp;nbsp;Interrupted Flag" style="rounded=1;whiteSpace=wrap;html=1;" vertex="1" parent="WIyWlLk6GJQsqaUBKTNV-1">
          <mxGeometry x="310" y="2570" width="120" height="60" as="geometry" />
        </mxCell>
        <mxCell id="nLkVJomoMqzsWr1Mw08b-66" style="edgeStyle=orthogonalEdgeStyle;rounded=0;orthogonalLoop=1;jettySize=auto;html=1;" edge="1" parent="WIyWlLk6GJQsqaUBKTNV-1" source="nLkVJomoMqzsWr1Mw08b-65" target="nLkVJomoMqzsWr1Mw08b-67">
          <mxGeometry relative="1" as="geometry">
            <mxPoint x="370" y="2840" as="targetPoint" />
          </mxGeometry>
        </mxCell>
        <mxCell id="nLkVJomoMqzsWr1Mw08b-65" value="Loop to Start" style="rounded=1;whiteSpace=wrap;html=1;" vertex="1" parent="WIyWlLk6GJQsqaUBKTNV-1">
          <mxGeometry x="310" y="2680" width="120" height="70" as="geometry" />
        </mxCell>
        <mxCell id="nLkVJomoMqzsWr1Mw08b-67" value="End" style="rounded=1;whiteSpace=wrap;html=1;" vertex="1" parent="WIyWlLk6GJQsqaUBKTNV-1">
          <mxGeometry x="310" y="2810" width="120" height="60" as="geometry" />
        </mxCell>
      </root>
    </mxGraphModel>
  </diagram>
</mxfile>
